<svg xmlns="http://www.w3.org/2000/svg" version="1.1" xmlns:xlink="http://www.w3.org/1999/xlink" xmlns:svgjs="http://svgjs.dev/svgjs" width="2000" height="454" viewBox="0 0 2000 454"><g transform="matrix(1,0,0,1,-1.2121212121212466,-0.8576561092653776)"><svg viewBox="0 0 396 90" data-background-color="#ffffff" preserveAspectRatio="xMidYMid meet" height="454" width="2000" xmlns="http://www.w3.org/2000/svg" xmlns:xlink="http://www.w3.org/1999/xlink"><g id="tight-bounds" transform="matrix(1,0,0,1,0.2400000000000091,0.17001993355481204)"><svg viewBox="0 0 395.52 89.65996013289036" height="89.65996013289036" width="395.52"><g><svg viewBox="0 0 395.52 89.65996013289036" height="89.65996013289036" width="395.52"><g><svg viewBox="0 0 395.52 89.65996013289036" height="89.65996013289036" width="395.52"><g id="textblocktransform"><svg viewBox="0 0 395.52 89.65996013289036" height="89.65996013289036" width="395.52" id="textblock"><g><svg viewBox="0 0 395.52 89.65996013289036" height="89.65996013289036" width="395.52"><g transform="matrix(1,0,0,1,0,0)"><svg width="395.52" viewBox="2.86 -38.72 220.44 49.97" height="89.65996013289036" data-palette-color="#3949fd"><path d="M2.86-2.93L2.86-16.14 2.91-26.17 2.91-36.35Q2.95-36.38 3.37-36.38L3.37-36.38 4.27-36.38Q4.79-36.38 5.05-36.43L5.05-36.43 8.08-36.55Q9.25-36.6 9.89-36.6L9.89-36.6 13.77-36.6 20.95-36.77Q22.41-36.77 24.17-36.65L24.17-36.65 24.34-36.65Q25.17-36.69 25.39-36.69L25.39-36.69Q30.27-36.69 33.74-33.59L33.74-33.59Q35.42-32.1 36.4-29.76 37.38-27.42 37.38-24.91 37.38-22.41 36.87-20.65 36.35-18.9 35.55-17.68L35.55-17.68Q32.32-12.74 23.07-11.91L23.07-11.91 17.8-11.69Q17.55-5.83 17.55-2.59L17.55-2.59 17.58-1.83 17.58 0.15Q17.48 0.49 17.21 0.61L17.21 0.61 3.27 0.83Q2.86-0.34 2.86-2.93L2.86-2.93ZM24.22-26.61L24.22-26.61Q23.24-29.17 19.04-29.35L19.04-29.35Q18.43-29.37 17.36-29.37L17.36-29.37Q17.07-29.37 16.99-22.17L16.99-22.17 16.94-20.34 17.02-18.87Q20.02-18.92 22.3-20.14 24.58-21.36 24.58-24.58L24.58-24.58Q24.58-25.95 24.22-26.61ZM48.95-29.96L48.92-29.93Q50.02-30.25 51.27-30.25 52.51-30.25 53.64-30.15L53.64-30.15 54.66-30.05Q57.08-29.83 58.37-29.49L58.37-29.49 58.37-29.52 58.88-29.3Q64.01-27.71 66.87-24.46L66.87-24.46 66.87-24.49Q67.53-23.71 68.49-22.13 69.46-20.56 69.46-19.95L69.46-19.95 69.65-19.29 69.77-18.58Q70.24-16.94 70.24-15.84 70.24-14.75 70.26-14.16L70.26-14.16 50.14-14.16 50.14-13.35Q50.29-12.79 50.29-12.18 50.29-11.57 50.3-11.22 50.31-10.86 50.36-10.53 50.41-10.21 50.42-10 50.44-9.79 50.53-9.51 50.63-9.23 50.64-9.13 50.66-9.03 50.79-8.74 50.93-8.45 51.01-8.19 51.1-7.93 51.34-7.69L51.34-7.69 51.34-7.71 51.61-7.2Q52.07-6.69 52.88-6.47L52.88-6.47Q54.22-6.76 54.7-7.86 55.17-8.96 55.49-10.6L55.49-10.6Q56.37-10.84 57.98-10.84L57.98-10.84 61.11-10.77 70.11-10.77Q69.82-7.79 68.36-5.3L68.36-5.3 68.38-5.3Q67.11-3.3 64.43-1.86L64.43-1.86Q56.83 0.81 54.69 0.81L54.69 0.81Q54.29 0.81 54.05 0.76L54.05 0.76 53.49 0.76 53.27 0.78 53.05 0.78Q52.85 0.78 52.56 0.73L52.56 0.73Q52.32 0.88 51.98 0.88L51.98 0.88 49.85 0.63Q49.68 0.71 49.16 0.71 48.63 0.71 46.41 0.05L46.41 0.05 46.41 0.07 45.82-0.1 45.24-0.29Q41.57-1.37 38.96-4.06 36.35-6.76 35.62-10.35L35.62-10.35Q35.54-10.79 35.35-11.68 35.15-12.57 35.15-12.89L35.15-12.89 35.15-14.06Q35.15-14.48 35.18-14.7L35.18-14.7 35.18-15.06Q35.18-20.24 38.25-24.01 41.33-27.78 46.51-29.32L46.51-29.32 47.09-29.49Q48.39-29.71 48.95-29.96L48.95-29.96ZM53.05-17.38L56.22-17.38 56.74-17.7Q56.32-20.34 55.95-21.08 55.59-21.83 55.25-22.36L55.25-22.36Q54.61-23.39 53.57-23.39 52.54-23.39 51.8-22.36L51.8-22.36Q50.51-20.56 50.17-17.29L50.17-17.29Q51.73-17.38 53.05-17.38L53.05-17.38ZM72.99 0.02L72.94-38.33 79.15-38.35Q81.98-38.35 87.93-38.31L87.93-38.31 87.93 0.02 72.99 0.02ZM102.87-16.04L104-16.21 104.24-16.19 104.83-16.19Q105.66-16.19 106.12-16.31L106.12-16.31 107.44-16.48Q110.81-16.72 111.49-18.29L111.49-18.29Q111.83-19.07 111.83-20.26L111.83-20.26Q111.69-20.51 111.69-21.19 111.69-21.88 110.99-22.63 110.3-23.39 109.34-23.39L109.34-23.39 109.22-23.39Q106.88-23.39 106.88-19.41L106.88-19.41Q106.76-19.21 106.47-19.26 106.19-19.31 105.12-19.31L105.12-19.31 92.52-19.31Q92.64-21 93.4-22.95L93.4-22.95Q94.84-26.71 98.98-28.36 103.12-30 107.19-30.15L107.19-30.15 108.66-30.22 109.44-30.3Q109.59-30.3 109.73-30.22L109.73-30.22 110.05-30.22 111.15-30.27Q111.49-30.27 112.69-30.1L112.69-30.1 113.4-30Q113.57-29.98 113.93-29.98 114.3-29.98 115.47-29.82 116.64-29.66 118.4-28.98L118.4-28.98Q124.36-26.64 125.63-20L125.63-20Q126.16-17.19 126.16-13.77L126.16-13.77Q126.34-13.21 126.34-12.74L126.34-12.74 126.21-11.06 126.21-8.23Q126.24-8.18 126.24-7.81L126.24-7.81 126.19-6.15 126.19-5.93Q126.26-5.81 126.26-5.59L126.26-5.59 126.24-5.37 126.24-4.86Q126.24-2.54 126.95-0.46L126.95-0.46 127.19 0.07 116.15 0.07 115.28 0.05Q114.3 0.05 113.79 0.07L113.79 0.07Q113.01-1.39 112.3-3.93L112.3-3.93Q111.98-3.27 111.21-2.43 110.44-1.59 110.08-1.59L110.08-1.59Q106.46 0.17 104.58 0.42L104.58 0.42Q101.8 0.88 101.59 0.88 101.38 0.88 101.38 0.88L101.38 0.88Q95.55 0.88 92.57-3.17L92.57-3.17Q91.08-5.25 91.08-7.98L91.08-7.98Q91.08-13.92 96.6-15.26L96.6-15.26Q98.01-15.6 102.07-15.97L102.07-15.97 102.87-16.04ZM112-9.81L112-10.55 112.03-11.33Q112.03-12.55 111.83-13.67L111.83-13.67Q111.3-13.38 110.27-13.01 109.25-12.65 108.64-12.39 108.02-12.13 107.52-11.49 107.02-10.84 107.02-9.72 107.02-8.59 107.74-7.67 108.46-6.74 109.32-6.74L109.32-6.74Q111.15-6.74 111.93-8.06L111.93-8.06 111.98-8.3 112-9.81ZM151.43-3.08L151.43-3.08 151.53-4.49Q151.53-4.86 151.31-6.47L151.31-6.47Q150.99-5.91 150.44-5.35 149.89-4.79 149.53-4.69L149.53-4.69Q146.87-3.52 143.07-3.52 139.27-3.52 136.26-5.07 133.24-6.62 131.42-9.55 129.6-12.48 129.6-15.8 129.6-19.12 130.59-21.69 131.58-24.27 133.35-26.17 135.12-28.08 137.73-29.17 140.35-30.27 143.45-30.27L143.45-30.27Q148.4-30.27 151.72-27.51L151.72-27.51Q152.33-26.86 152.99-26.42L152.99-26.42 153.33-27.49 153.33-29.2 159.66-29.2 166.01-29.22 166.03-6.45Q166.03-6.03 165.98-5.15L165.98-5.15 165.98-5.05Q165.96-4.59 165.96-3.59L165.96-3.59 165.96-3.32 166.01-2.03 165.86-0.66Q165.86-0.54 165.87-0.51 165.88-0.49 165.66 0.59 165.44 1.66 165.13 2.49L165.13 2.49Q164.13 5.18 161.15 7.39 158.17 9.59 155.97 9.91L155.97 9.91Q155.73 10.16 155.02 10.29 154.31 10.42 154.16 10.47L154.16 10.47 154.16 10.45Q151.8 11.23 149.64 11.23 147.48 11.23 147.4 11.18L147.4 11.18 146.67 11.18Q146.45 11.25 145.51 11.25 144.57 11.25 142.08 10.69L142.08 10.69 141.3 10.52Q139.52 10.16 138.05 9.47L138.05 9.47Q134.58 8.08 132.61 5.76 130.63 3.44 129.92-0.66L129.92-0.66 129.87-0.88Q130.65-0.83 132.17-0.83L132.17-0.83 136.17-0.9 146.99-0.9 146.96-0.81Q146.96 0.46 147.51 1.5 148.06 2.54 148.96 2.54L148.96 2.54Q150.55 2.54 151.11 0.73L151.11 0.73Q151.55-0.68 151.55-2.27L151.55-2.27 151.55-2.76Q151.48-2.76 151.48-2.66L151.48-2.66Q151.43-2.73 151.43-3.08ZM152.11-15.58L152.11-16.36 152.14-16.65Q151.92-23.73 149.01-23.73L149.01-23.73Q148.18-23.73 147.55-23.12L147.55-23.12Q146.52-22.14 146.14-20.19 145.77-18.24 145.77-16.8L145.77-16.8 145.84-15.94 145.84-15.72 145.82-15.55 145.82-15.41Q145.82-13.4 146.77-11.51 147.72-9.62 149.18-9.62L149.18-9.62Q150.8-9.62 151.87-13.62L151.87-13.62 151.75-13.62Q152.11-14.58 152.11-15.58L152.11-15.58ZM169.23-38.48L184.31-38.53 184.34-31.84 169.3-31.84Q169.3-34.18 169.25-35.18L169.25-35.18 169.23-38.48ZM169.23-38.48L168.98-38.48 169.23-38.72 169.23-38.48ZM184.41-8.5L184.41-7.74 184.44-7.52 184.46-3.86Q184.46-2.86 184.36-1.46 184.26-0.07 184.19-0.02L184.19-0.02 183.75 0.02 174.87 0.02 173.84 0.12Q170.03 0.12 169.2 0.02L169.2 0.02 169.2-0.15 169.18-0.61 169.18-1.71Q169.18-6.52 169.32-9.69L169.32-9.69 169.59-28.49 169.59-29.22 171.5-29.25 171.91-29.22 172.62-29.22 173.23-29.2 173.55-29.22 175.3-29.22 175.67-29.25 184-29.15Q184.09-29.17 184.14-29.17 184.19-29.17 184.19-29.03L184.19-29.03 184.22-26.71Q184.24-24.39 184.31-20.5 184.39-16.6 184.39-14.99L184.39-14.99 184.36-11.94 184.36-10.64 184.44-9.35 184.44-8.59Q184.44-8.57 184.41-8.5L184.41-8.5ZM223.3-14.77L223.3-14.77Q223.25-14.53 223.25-14.48L223.25-14.48 223.25-14.28Q223.18-10.25 221.4-7.03L221.4-7.03 221.42-7.03Q218.93-3.22 214.47-1.17 210.02 0.88 205.7 0.88 201.38 0.88 198.53 0.04 195.69-0.81 193.27-2.42 190.85-4.03 189.68-5.52L189.68-5.52Q186.9-9.03 186.9-15.45L186.9-15.45Q186.9-15.67 186.97-15.82L186.97-15.82 186.97-16.21Q186.9-16.31 186.9-16.41L186.9-16.41 186.95-16.67 186.92-16.67Q187.39-20.95 188.73-22.29L188.73-22.29Q188.73-22.56 189.07-22.9L189.07-22.9 189.07-22.88 189.44-23.46Q192.32-27.15 196.03-28.52L196.03-28.52 196.88-28.83Q198.5-29.61 201.4-30L201.4-30 202.18-30.08Q202.35-30.1 202.88-30.13 203.4-30.15 203.62-30.22L203.62-30.22 204.67-30.2Q204.75-30.22 204.84-30.22 204.94-30.22 205.06-30.2L205.06-30.2 205.04-30.22Q205.19-30.15 205.48-30.15L205.48-30.15Q205.58-30.25 205.82-30.25L205.82-30.25Q211.12-30.25 214.83-28.08L214.83-28.08 215.32-27.86Q223.3-24.02 223.3-14.77ZM208.11-14.62L208.11-14.62Q208.02-19.48 206.72-21.19L206.72-21.19Q206.19-21.9 205.42-21.9 204.65-21.9 204.06-21.01 203.48-20.12 203.12-18.21 202.77-16.31 202.77-14.83 202.77-13.35 202.9-12.29 203.04-11.23 203.31-10.05 203.57-8.86 204.14-8.07 204.7-7.28 205.4-7.28L205.4-7.28Q208.11-7.28 208.11-14.62Z" opacity="1" transform="matrix(1,0,0,1,0,0)" fill="#ffffff" class="wordmark-text-0" data-fill-palette-color="primary" id="text-0"></path></svg></g></svg></g></svg></g></svg></g></svg></g><defs></defs></svg><rect width="395.52" height="89.65996013289036" fill="none" stroke="none" visibility="hidden"></rect></g></svg></g></svg>